<svg xmlns="http://www.w3.org/2000/svg" width="733" height="624"><path fill="#00115a" d="M297 294h55c-1 9-1 9-2 11h12c-.33-.89-.66-1.77-1-2.69-1-3.31-1-3.31-1-8.31h56l1 9c2.08 1.72 2.08 1.72 5 3 1.22.81 2.42 1.64 3.61 2.5.66.47 1.33.94 2.01 1.42l2.13 1.52c1.53 1.08 3.05 2.16 4.58 3.24.77.56 1.55 1.11 2.35 1.67 3.6 2.56 7.21 5.1 10.82 7.65 1.42 1 2.84 2 4.25 3 2.82 1.99 5.64 3.98 8.46 5.96 8.15 5.73 16.24 11.52 24.3 17.37 6.43 4.65 12.94 9.19 19.49 13.67-1.5 4.05-3.7 5.31-7.41 7.36-1.12.64-2.24 1.27-3.4 1.92-1.23.68-2.46 1.35-3.69 2.03-1.27.71-2.54 1.43-3.81 2.14a3100 3100 0 0 1-7.86 4.4c-5.68 3.18-11.32 6.45-16.95 9.71l-6.45 3.72-12.96 7.5c-11.7 6.78-23.43 13.5-35.26 20.07-5.18 2.88-10.33 5.79-15.43 8.81-19.55 11.49-19.55 11.49-29.78 12.34-.8.07-1.6.14-2.43.22-12.77.53-23.46-4.97-34.45-10.78-.81-.44-1.63-.87-2.48-1.31-7.32-3.9-14.49-8.04-21.64-12.22-5.37-3.14-10.77-6.18-16.19-9.22-8.9-5.01-17.72-10.13-26.53-15.31-7.73-4.52-15.55-8.87-23.4-13.19-9.2-5.07-18.2-10.27-26.88-16.19 3.85-4.11 7.98-7.26 12.62-10.44 6.4-4.44 12.7-8.98 18.94-13.62 6.49-4.81 13.05-9.49 19.72-14.03 4.37-2.97 8.68-6.01 12.97-9.1 2.25-1.61 4.5-3.21 6.75-4.81.55-.39 1.1-.79 1.67-1.19 1.6-1.14 3.22-2.26 4.83-3.37.92-.64 1.84-1.28 2.78-1.94 2.96-1.63 5.38-2.14 8.72-2.5zm51 20-1 5.25c-.19.97-.37 1.95-.56 2.95-.44 2.8-.44 2.8-.44 6.8h21c-.5-2.48-.5-2.48-3-15zm-4 25c-.86 4.29-1.72 8.58-2.56 12.88-.13.61-.13.61-.75 3.7-.11.59-.11.59-.69 3.54-.22 1.08-.43 2.15-.65 3.27C339 365 339 365 340 367c4.52.05 9.04.09 13.56.11 1.54.01 3.08.02 4.62.04 2.21.03 4.42.04 6.62.05.35 0 .35 0 2.09.03 1.71 0 3.41-.11 5.11-.23l2-2c-.23-2.61-.23-2.61-.9-5.88-.11-.59-.11-.59-.7-3.54-.26-1.22-.51-2.44-.78-3.7-.24-1.24-.49-2.47-.74-3.74-.62-3.05-1.25-6.09-1.88-9.14zm-7 38c-.86 4.59-1.72 9.18-2.56 13.77-.29 1.56-.58 3.12-.88 4.68-.42 2.25-.83 4.5-1.25 6.75-.06.34-.06.34-.4 2.09-.71 3.95-1.26 7.7-.91 11.71 7.25 6.48 17.98 9.37 27.55 9.21 8.54-.73 16.35-4.58 23.45-9.21 1.63-3.26.29-6.59-.4-10.04-.15-.79-.31-1.58-.47-2.4-.32-1.68-.66-3.36-.99-5.04-.51-2.57-1.01-5.15-1.52-7.73a422 422 0 0 0-.96-4.89c-.15-.77-.3-1.55-.45-2.35-1.09-5.43-1.09-5.43-2.21-6.55-2.81-.09-5.6-.12-8.41-.1-.42 0-.42 0-2.55.01q-4.05 0-8.1.03c-1.83 0-3.65.01-5.48.01-4.49.01-8.97.03-13.46.05"/><path fill="#001058" d="M333.617 176.7c1.71 0 3.41-.01 5.12-.01q5.34-.015 10.68 0c4.54 0 9.07-.02 13.61-.04 3.51-.01 7.03-.01 10.55-.01 1.67 0 3.34-.01 5.01-.02 24.61-.13 24.61-.13 33.59 7.39 3.86 4.2 6.51 9.15 9.26 14.12.62 1.08 1.25 2.16 1.89 3.28 4.91 8.65 4.91 8.65 5.67 12.59h2c.05-.45.05-.45.32-2.75.7-3.33 1.3-4.87 3.68-7.25 3.19-1.08 6.21-1.13 9.57-1.12.95-.01 1.9-.01 2.87-.01 2.56.13 2.56.13 5.56 1.13 2.28 2.87 2.98 4.85 3.5 8.5-.5 3.5-.5 3.5-2.5 6.38-4.82 3.41-9.14 3.12-15 3.12 2 2.12 3.99 3.7 6.44 5.25 6.48 4.62 7.87 10.24 9.16 17.71.65 4.92.69 9.78.67 14.74v3.25c.01 2.25 0 4.5-.01 6.75-.01 3.42 0 6.85.02 10.27-.01 2.2-.01 4.4-.01 6.6 0 1.01.01 2.03.01 3.07-.04 6.09-.75 11.47-2.28 17.36.61.3 1.23.6 1.86.91 13.96 6.88 27.74 14.02 41.36 21.56 4.88 2.69 9.77 5.36 14.66 8.03.9.49 1.79.99 2.72 1.49 5.08 2.78 10.2 5.45 15.4 8.01v2c-2.01 1.76-2.01 1.76-4.68 3.69-.44.32-.44.32-2.64 1.95-2.68 1.36-2.68 1.36-4.99 1.39-4.01-1.53-7.42-3.81-11-6.15-1.71-1.1-3.42-2.2-5.12-3.3-.91-.58-1.81-1.17-2.74-1.77-4.85-3.11-9.75-6.14-14.64-9.18-8.01-5-15.99-10.04-23.94-15.13-7.32-4.68-14.67-9.25-22.25-13.5 1.94-2.02 3.63-3.42 6-5 .73-2.5.73-2.5 1.19-5.44.16-.96.32-1.93.48-2.93.33-2.63.33-2.63.33-5.63l-2 1c-2.27.1-4.55.13-6.83.13h-2.15c-2.4.01-4.79 0-7.19 0-1.71 0-3.42 0-5.13.01h-13.97c-4.86-.01-9.73-.01-14.6 0-8.17 0-16.34 0-24.51-.01h-28.37c-8.11.01-16.22.01-24.33.01-4.85-.01-9.69-.01-14.54 0-4.56 0-9.12 0-13.67-.01h-5.03c-2.28.01-4.56 0-6.84 0h-3.88c-2.96-.13-2.96-.13-4.96-1.13.81 7.45 1.44 12.73 7 18-16.02 11.53-32.94 21.7-49.76 32.01-5.84 3.59-11.66 7.21-17.48 10.83-4.53 2.82-9.1 5.54-13.76 8.16l-11-8c1.49-2.97 3.64-3.4 6.63-4.81 6.31-3.05 12.37-6.44 18.44-9.94 12.32-7.09 24.98-13.5 37.68-19.89.79-.4 1.57-.8 2.39-1.21 1.48-.75 2.98-1.5 4.47-2.24 3.28-1.67 5.89-3.23 8.39-5.91-.32-.54-.65-1.08-.98-1.64-1.24-2.87-1.28-5.05-1.31-8.18-.01-1.17-.02-2.34-.04-3.55v-3.83c-.01-.65-.01-.65-.02-3.95-.02-2.77-.02-5.53-.02-8.29q0-5.28-.06-10.56c-.03-3.38-.03-6.76-.03-10.14-.01-1.25-.03-2.5-.04-3.79.04-8.25.94-15.03 6.54-21.37.33-.26.33-.26 2.03-1.57.67-.54 1.34-1.07 2.03-1.62.63-.5 1.26-1 1.9-1.51q1.53-1.47 3-3c-.73 0-1.47 0-2.23-.01-8.97-.35-8.97-.35-12.02-3.61-2.15-4.15-2.14-5.95-.75-10.38 2.27-2.87 3.52-3.84 7-5 4.52-.4 8.65-.49 12.94 1.06 2.75 2.59 3.66 5.47 5.06 8.94.15-.3.15-.3.92-1.8 1.39-2.74 2.8-5.47 4.21-8.2.47-.93.95-1.87 1.44-2.83 9.79-18.94 9.79-18.94 18.32-21.8 8.51-1.84 17.07-1.68 25.73-1.67m-26.22 13.26c-3.4 4.31-6.04 8.94-8.71 13.73-.55.96-1.1 1.92-1.67 2.91-4.02 7.12-4.02 7.12-4.02 9.4h126c-2.55-6.37-5.73-12.3-9.05-18.29-.76-1.37-1.5-2.75-2.23-4.14-2.72-4.54-5.68-5.63-10.51-6.97-6.77-1.26-13.67-1-20.53-.96h-5.01c-3.48 0-6.97.01-10.45.02-4.45.03-8.9.03-13.35.02-3.44 0-6.89 0-10.33.01-1.64.01-3.28.01-4.92.01-2.3 0-4.59.01-6.89.03-1.3 0-2.61.01-3.95.01-5.26.36-10.07.98-14.38 4.22m-36.27 51.67c-1.69 3.55-1.34 6.73-.13 10.37 5.77 6.44 14.13 6.35 22.2 6.85 5.94.24 11.86.23 17.8.15-1.66-6.41-3.71-11.76-9-16-8.88-4.68-22.42-8.7-30.87-1.37m134.69 5.75c-3.05 3.7-4.82 6.73-4.82 11.62 8.58.19 17.09.21 25.63-.75 1.25-.14 2.5-.28 3.79-.42 4.26-.98 6.94-2.43 10.58-4.83 1.17-2.33 1.2-3.85 1.25-6.44.02-.39.02-.39.08-2.37-.33-2.19-.33-2.19-1.59-3.91-9.76-7.19-27.72-.87-34.92 7.1m-83.82 2.62c1 8 1 8 7 26h54c2.2-5.13 4.06-9.97 5.69-15.25.23-.71.45-1.41.68-2.14.93-2.98 1.63-5.47 1.63-8.61zm-48 22c.13 1.88.13 1.88 1 4 5.18 2.86 11.38 2.32 17 1 1.83-1.55 1.83-1.55 3-3-4-4.43-6.06-4.88-11.93-5.25-3.76.03-6.02.97-9.07 3.25m145-1c-1 2-1 2-1 4 3 3 6.05 2.72 10.16 3.05 3.98-.07 6.39-1.13 9.84-3.05v-4c-5.81-3.31-13.04-2.98-19 0"/><path fill="#005dfe" d="M364 8c20.22 1.69 33.68 8.85 51 19l5.67 3.3c8.48 4.92 16.93 9.88 25.38 14.84 2.44 1.43 4.88 2.87 7.33 4.3.6.35 1.21.71 1.84 1.08 11.92 6.99 23.88 13.91 35.86 20.8 6.61 3.8 13.22 7.61 19.81 11.46 2.08 1.2 4.17 2.39 6.26 3.58 16.04 9.21 28.56 21.04 33.91 39.26 1.59 7.45 1.24 15.14 1.23 22.72.01 1.75.01 3.51.02 5.26.02 4.74.02 9.49.02 14.23.01 2.97.01 5.94.02 8.91.01 10.38.02 20.75.02 31.13 0 9.65.02 19.29.05 28.94.03 8.3.04 16.6.04 24.91 0 4.95 0 9.9.02 14.85.02 4.65.02 9.31.01 13.97 0 1.7 0 3.4.01 5.1.09 12.27-.88 23.87-7.94 34.42-.55.86-1.11 1.72-1.68 2.6-2.05 2.55-4.31 4.34-6.88 6.34-26.59-12.64-26.59-12.64-38.51-19.09-5.39-2.89-10.87-5.5-16.49-7.91 3.03-1.76 4.96-2.17 8.44-1.94 10.3.17 20.53-2.4 28.56-9.06 6.54-7.73 7.3-15.92 7.32-25.7l.03-3.55c.03-3.86.05-7.72.06-11.59l.06-8.04c.05-6.33.09-12.67.12-19 .04-7.21.09-14.42.14-21.63q.15-22.245.27-44.49c-6.28-.2-12.56-.34-18.84-.44-2.14-.04-4.27-.09-6.41-.16-3.07-.1-6.15-.15-9.22-.18-.95-.04-1.9-.08-2.88-.13-4.03 0-6.61.02-9.75 2.71-1.87 2.19-1.87 2.19-3.45 4.38C474 175 474 175 471 176c-5.7.56-10.13.29-15-3-4.18-4.63-5.37-7.49-5.28-13.61.47-4.04 1.81-6.14 4.28-9.39 4.71-3.4 9.38-3.74 15-3 3.74 1.34 5.49 2.13 7.51 5.57 3.86 3.77 7.74 3.16 12.94 3.14.51 0 .51 0 3.08.04 3.24.05 6.48.05 9.72.06 2.2.03 4.4.05 6.59.08 5.39.06 10.77.1 16.16.11-.15-2.73-.3-5.46-.46-8.19l-.12-2.33c-.66-11.53-3.11-20.72-11.89-28.85-5.02-4.26-10.6-7.37-16.34-10.57-1.73-.98-3.47-1.96-5.2-2.94-1.19-.68-2.39-1.36-3.59-2.04-6.39-3.63-12.71-7.38-19.02-11.14-8.55-5.08-17.1-10.13-25.69-15.13-7.66-4.46-15.31-8.93-22.94-13.43-.9-.53-1.79-1.06-2.72-1.61q-6.765-4.005-13.5-8.07c-.89-.54-1.77-1.08-2.69-1.63-1.66-1.01-3.32-2.01-4.97-3.03-8.18-4.95-16.1-9.29-25.49-11.35-2.44-.56-4.87-1.12-7.38-1.69zm97 149.62c-1 2.38-1 2.38-.19 5.63.39.91.79 1.81 1.19 2.75 2.75.75 2.75.75 6 1 2.44-1.62 2.44-1.62 4-4-.16-3.39-.58-4.58-3-7-3.47-.44-5.23-.62-8 1.62"/><path fill="#001158" d="M348 9v25c-2.39.54-4.78 1.07-7.25 1.62-14.17 3.46-25.91 11.37-38.25 18.87-3.71 2.24-7.45 4.44-11.19 6.63-.34.21-.34.21-2.09 1.23l-4.14 2.43c-3.53 2.07-7.06 4.15-10.58 6.22-4.13 2.43-8.26 4.86-12.4 7.29-6.51 3.82-13.01 7.66-19.51 11.51-.56.34-1.13.67-1.71 1.02-2.92 1.73-5.85 3.47-8.77 5.21-6.06 3.6-12.16 7.14-18.31 10.6-10.89 6.15-20.6 11.91-24.8 24.37-2.12 8.01-2.28 15.78-2.26 24.03 0 1.38-.01 2.77-.01 4.16-.01 3.73-.01 7.47 0 11.2.01 3.93 0 7.85 0 11.78-.01 6.58 0 13.17.01 19.76.01 7.6.01 15.2 0 22.79-.01 6.55-.01 13.09-.01 19.64v11.7c-.01 3.66 0 7.33.01 11 0 1.97 0 3.95-.01 5.92.05 10.73.97 19.69 8.27 28.02 10.52 9.56 24.57 9.54 38 10-2.6 2.6-5.58 3.64-8.92 5.04-6.28 2.69-12.46 5.54-18.6 8.55-.79.39-1.59.78-2.41 1.18-3.28 1.61-6.56 3.23-9.84 4.85-2.43 1.2-4.87 2.4-7.31 3.59-.74.37-1.48.73-2.24 1.11-3.2 1.57-6.2 2.9-9.68 3.68-10.82-10.6-15.07-23.84-15.27-38.7-.02-3.05-.02-6.1-.02-9.15-.01-1.69-.01-3.38-.02-5.07-.02-4.57-.02-9.14-.02-13.7-.01-2.86-.01-5.72-.02-8.59-.01-10-.02-20-.02-30.01 0-9.28-.02-18.57-.05-27.86-.03-8-.04-16.01-.04-24.01 0-4.77 0-9.53-.02-14.3-.02-4.49-.02-8.98-.01-13.47 0-1.63 0-3.27-.01-4.9-.14-18.86 3.6-35.59 16.79-49.83C181.33 93.3 188.58 89.21 196 85c1.62-.93 3.23-1.86 4.85-2.8 3.51-2.01 7.02-4.01 10.54-6.01 5.8-3.29 11.55-6.64 17.3-10 8.42-4.93 16.86-9.82 25.31-14.69 8.35-4.81 16.68-9.64 25-14.5 1.96-1.14 3.93-2.29 5.89-3.43 3.74-2.18 7.47-4.37 11.2-6.58 1.73-1.02 3.47-2.04 5.2-3.06q3.285-1.92 6.54-3.87c9.65-5.63 19.62-10.42 30.86-11.44l2.08-.24c4.92-.53 4.92-.53 7.23.62"/><path fill="#005dfe" d="M700.973 489.258c13.75 11.81 18.67 26.56 20.25 44.23.62 16.09-5.04 29.06-13.22 42.51.93 1.21 1.87 2.42 2.81 3.63a1076.504 1076.504 0 0 0 7.1 9.05c.5.63 1 1.26 1.51 1.91 1.01 1.27 2.01 2.54 3.02 3.8 3.56 4.5 3.56 4.5 3.56 5.61-4.56.23-9.11.39-13.66.5-1.55.04-3.09.1-4.64.18-12.77.63-12.77.63-17.36-2.48-2.06-2.29-3.71-4.6-5.34-7.2-.92-1.17-1.86-2.33-2.8-3.48l-2.52-3.27c-3.62-4.68-7.33-9.25-11.18-13.75-4.48-5.22-8.76-10.57-12.98-16.01-1.76-2.27-3.49-4.45-5.52-6.49v-3c4.47-.46 8.95-.8 13.43-1.12.63-.07.63-.07 3.82-.4 9.31-.58 9.31-.58 13.67 2.76 2.24 2.49 4.22 4.98 6.08 7.76 4.38-10.52 4.18-23.11 1-34-3.19-7.2-8.62-12.82-15.94-15.81-3.96-1.29-7.91-1.94-12.06-2.19-.77-.05-1.55-.1-2.34-.16-9.09-.33-18.3 1.68-25.66 7.16-8.93 10.64-9.06 22.74-8 36 1.27 7.25 4.01 12.14 9.88 16.64 5.74 3.7 10.41 4.45 17.24 4.74 8.29.48 8.29.48 11.52 3.9.45.57.9 1.14 1.36 1.72.64.78 1.28 1.55 1.95 2.35 1.4 1.72 2.78 3.46 4.14 5.21 1.59 2.03 3.22 4 4.91 5.94 2 2.5 2 2.5 2 4.5-5.12.1-10.24.17-15.36.22-1.73.02-3.47.05-5.2.08-17.99.36-35.92-1.71-49.82-14.48-13.63-15.28-14.47-31.98-13.85-51.46.7-10.38 4.85-19.2 11.23-27.36.62-.88 1.23-1.77 1.87-2.69 22.29-24.25 69.79-24.27 95.1-5.05"/><path fill="#001159" d="M8 479h93v23H36v20h61v22H36v21h68v22H9z"/><path fill="#001059" d="M293 508c68.32 0 68.32 0 79.43 10.24 9.62 10.81 9.33 24.57 8.76 38.2-.69 9.32-4.59 17.02-11.19 23.56-7.19 5.77-14.55 7.32-23.56 7.2-.79-.01-1.58-.01-2.39-.01-2.5-.01-4.99-.04-7.49-.07-1.7-.01-3.4-.01-5.1-.02-4.16-.02-8.31-.06-12.46-.1v30h-26zm26 21v38c1.91.03 1.91.03 11.56.19 1.19.02 2.38.05 3.61.08 7.25.06 12.54-.34 18.14-5.33 3.88-6.76 4.44-14.42 2.69-21.94-1.76-4.67-3.79-7.29-8-10-3.55-.92-6.86-1.12-10.52-1.1-.92 0-1.84.01-2.79.01l-3.5.03z"/><path fill="#001159" d="M116 479h27l-1 56c7 0 7 0 9.99-2.46.98-1.1 1.94-2.22 2.89-3.35.51-.59 1.02-1.17 1.54-1.77 1.55-1.79 3.07-3.6 4.58-5.42.45-.54.91-1.09 1.37-1.65q2.94-3.525 5.79-7.11c.3-.37.3-.37 1.84-2.24.39-.54.78-1.07 1.19-1.62 2.79-2.13 5.21-1.72 8.67-1.67.66 0 1.32.01 2 .01q3.165.03 6.33.09c1.43.02 2.86.03 4.29.04 3.51.04 7.01.09 10.52.15-1.62 3.41-3.48 5.8-6.06 8.56a226 226 0 0 0-9.38 10.88c-4.63 5.73-9.55 11.15-14.56 16.56 1.63 3.85 4.21 6.76 6.94 9.88 4.01 4.66 7.91 9.39 11.68 14.24A826 826 0 0 0 206 586l-1 2c-28.1 1.25-28.1 1.25-34.05-3.47-2.41-2.59-4.16-5.52-5.84-8.62-2-3.45-4.64-6.41-7.17-9.47-2.7-3.37-4.99-6.55-6.94-10.44h-9c.16 5.12.16 5.12 1 31h-27zM430.948 507.76c2.22-.01 4.43-.04 6.65-.07 10.64-.08 21.11.4 29.68 7.44 10.25 11.15 7.72 25.48 7.72 39.87h-57v-16c7.25-.84 14.33-1.13 21.63-1.06a1791.09 1791.09 0 0 1 10.37.06c-.12-2.81-.12-2.81-1-6-4.91-3.75-10.16-3.42-16.06-3.31-.44 0-.44 0-2.68-.01-9.93.08-9.93.08-13.95 3.95-3.66 6.62-4.39 14.47-2.77 21.8 1.32 4.4 2.57 7.87 6.46 10.57 5.93 2.14 11.48 2.34 17.75 2.41l3.06.06c3.21.06 6.42.11 9.63.16 2.18.03 4.37.07 6.55.11 5.34.1 10.68.18 16.01.26v19c-7.61.11-15.23.21-22.84.26-3.54.03-7.08.06-10.62.12-4.08.06-8.16.09-12.24.11-.63.01-.63.01-3.79.08-9.99 0-18.93-2.01-26.51-8.88-10.17-11.41-9.73-25.5-9.18-39.92.62-9.44 4.13-15.92 10.68-22.64 9.74-8.29 20.22-8.34 32.45-8.37"/><path fill="#00115a" d="M242.402 507.902h3.27c3.42.01 6.84.02 10.27.04a9724.34 9724.34 0 0 1 24.06.06v21c-3.22-.01-6.43-.03-9.74-.04-3.11-.01-6.22-.01-9.32-.02-2.17 0-4.33-.01-6.49-.02-3.11-.01-6.21-.02-9.32-.02-.96-.01-1.93-.01-2.93-.02h-5.13c-2.07.12-2.07.12-5.07 1.12v5c8.18 2.36 16.45 2.95 24.91 3.68 8.64.85 17.23 2.03 23.53 8.51 4.36 5.77 6.43 12.61 5.56 19.81-1.6 6.49-3.57 11.51-8.83 15.78-7.97 4.47-14.87 4.62-23.86 4.51-1.3 0-2.6-.01-3.93-.01-3.43-.01-6.86-.04-10.28-.08-3.51-.03-7.01-.04-10.52-.06-6.86-.03-13.72-.08-20.58-.14v-19c2.93-.98 4.79-1.12 7.84-1.12h2.97c1.05.01 2.11.01 3.2.02h3.28c3.47.01 6.93.02 10.4.04 2.34 0 4.69 0 7.04.01 5.75.01 11.51.03 17.27.05v-7c-5.42-1.23-10.78-2.14-16.31-2.68-.55-.05-.55-.05-3.33-.32-2.24-.21-4.48-.41-6.73-.59-8.99-.91-16.75-3.09-23.13-9.79-4.08-5.32-5.07-11.02-4.5-17.62 1.37-6.47 3.87-11.72 9-16 8.67-5.2 17.57-5.15 27.4-5.1"/><path fill="#005cfe" d="M552 479h30v108h-30z"/><path fill="#00115a" d="m524.188 507.875 4.62.03c3.73.02 7.46.06 11.19.09v21c-9.24.34-18.48.66-28 1-.74 3.72-1.14 6.64-1.2 10.35l-.06 3.15c-.01.56-.01.56-.05 3.37-.02 1.15-.05 2.29-.07 3.47l-.18 10.98c-.04 2.48-.09 4.96-.13 7.44-.11 6.08-.21 12.16-.31 18.24h-25c-.09-8.05-.16-16.11-.2-24.17-.03-3.74-.05-7.49-.1-11.23-.04-3.62-.07-7.24-.08-10.85 0-1.38-.02-2.75-.04-4.13-.13-8.47-.19-16.76 5.97-23.25 8.71-7.51 22.9-5.61 33.64-5.49"/><path fill="#005dfd" d="M470.07 116.23c3.41 2.77 6.08 5.33 6.93 9.77-.19 5.89-1.12 9.37-5 14-4 3.63-8.25 3.44-13.41 3.29-3.24-.36-5.1-1.18-7.59-3.29-.54-.69-1.09-1.37-1.64-2.08-3.24-2.64-6.11-2.48-10.11-2.43l-2.35-.03c-2.56-.02-5.12-.01-7.69 0-1.78-.01-3.56-.02-5.34-.04-4.68-.03-9.37-.04-14.06-.04-7.5-.01-15-.05-22.51-.09-2.62-.02-5.24-.02-7.87-.01l-4.81-.03c-.73.01-1.46.01-2.21.02-3.7-.03-5.25-.16-8.41-2.27-.38-3-.38-3 0-6 3.68-2.45 6.43-2.27 10.68-2.23h2.37c2.58 0 5.16.02 7.74.03 1.79.01 3.58.01 5.37.01 4.71.01 9.42.03 14.13.05 4.81.02 9.61.03 14.42.04 9.43.02 18.86.06 28.29.1.27-.77.54-1.54.82-2.33 1.63-3.68 3.95-5.34 7.18-7.67 5.01-1.68 10.48-1.5 15.07 1.23M456 126c-.5 3.06-.5 3.06 0 6 3 2 3 2 6.62 1.69C466 133 466 133 467 132c.37-2.88.37-2.88 0-6-4.66-3.58-6.34-3.58-11 0"/><path fill="#00115c" d="M226.293 120.58c.61-.01.61-.01 3.71-.05h3.97c1.37-.01 2.74-.01 4.11-.02 2.86-.02 5.72-.02 8.58-.01 3.67 0 7.32-.03 10.99-.07 2.82-.02 5.65-.02 8.47-.02 2 0 4.01-.03 6.01-.05 10.1.07 10.1.07 13.19 2.95 2.22 3.57 2.43 5.57 1.68 9.69-2.79 2.95-4.45 3.92-8.49 4.48-1.35.01-2.71 0-4.06-.03-.74 0-1.48.01-2.25.01-2.44-.01-4.88-.04-7.32-.07-1.69-.01-3.39-.01-5.09-.02-4.45-.01-8.91-.05-13.37-.1-4.55-.04-9.1-.05-13.65-.07-8.93-.05-17.85-.12-26.77-.2 1.3-3.36 2.62-6.21 4.75-9.13.47-.66.94-1.32 1.42-2 4.05-4.14 8.47-5.25 14.12-5.29"/><path fill="#000323" d="M8 479h93v23H36v20h61v22H36v21h68v22H9zm3 2c-.78 3.13-1.12 5.17-1.12 8.28v2.56c0 .92 0 1.85.01 2.79v2.96c0 3.23 0 6.45.01 9.68 0 2.23.01 4.47.01 6.7 0 5.89.01 11.78.02 17.66.01 7.06.02 14.12.02 21.19.01 10.72.03 21.45.05 32.18h92v-17c-3.63-.91-6.44-1.15-10.15-1.21l-3.76-.06c-1.35-.01-2.69-.03-4.04-.05l-4.16-.06-10.91-.15c-3.71-.05-7.42-.11-11.14-.16-7.28-.11-14.56-.21-21.84-.31-.16-3.79-.16-3.79-1-23h60v-19c-1.78-.03-3.56-.05-5.4-.08-5.88-.08-11.75-.17-17.63-.26-3.56-.05-7.12-.11-10.69-.16-4.09-.05-8.18-.12-12.28-.18-1.28-.02-2.57-.04-3.89-.05l-3.58-.06c-1.05-.02-2.09-.04-3.17-.05C36 523 36 523 35 522v-21l64-1v-19z"/><path fill="#005dfd" d="M429.25 87.188c3.57 2.35 5.84 5 7.75 8.81.55 5.01.56 8.9-1.75 13.44-3.74 4.26-6.17 6.1-12.03 6.63-5.49-.16-9.91-1.75-13.78-5.63-1.44-2.44-1.44-2.44-1.44-4.44l-3.72.03c-4.54.04-9.09.06-13.63.08-1.97.01-3.94.03-5.91.04-2.82.03-5.65.04-8.48.05l-2.67.03h-2.49c-.72 0-1.44.01-2.18.01-1.92-.24-1.92-.24-4.92-2.24-.66-5.13-.66-5.13 1.27-7.67 2.13-1.63 3.18-1.69 5.83-1.67h2.49c.88.02 1.76.03 2.67.05.45 0 .45 0 2.75.01 2.89.02 5.78.06 8.68.09 1.96.02 3.92.03 5.88.05 4.81.03 9.62.08 14.43.14.28-.61.56-1.23.85-1.86 4.15-7.7 12.84-8.71 20.4-5.95M417 96.998c-.94 2.38-.94 2.38-1 5 1.06 2.31 1.06 2.31 3 4 3.13.32 5.17.42 8-1 .63-3.06.63-3.06 1-6-6.22-5.24-6.22-5.24-11-2"/><path fill="#0059f7" d="M452 306c3.03 1.17 5.8 2.71 8.62 4.31 1.68.92 3.35 1.83 5.02 2.75.88.48 1.75.96 2.65 1.46 4.63 2.53 9.33 4.93 14.02 7.36 10.51 5.46 20.91 11.11 31.29 16.8 5.11 2.81 10.26 5.56 15.4 8.32v2c-2.01 1.76-2.01 1.76-4.69 3.69-.87.64-1.74 1.28-2.63 1.95-2.68 1.36-2.68 1.36-4.99 1.39-4.01-1.54-7.42-3.81-11-6.15l-5.13-3.3c-.9-.59-1.8-1.17-2.74-1.77-4.85-3.11-9.74-6.14-14.63-9.19-8.99-5.6-17.95-11.26-26.88-16.97-.85-.53-1.69-1.07-2.56-1.63-.8-.51-1.59-1.02-2.41-1.55-1.57-.98-3.14-1.94-4.74-2.87-.73-.43-1.47-.87-2.22-1.31-.66-.37-1.31-.74-1.98-1.13-.46-.38-.92-.76-1.4-1.16v-3c3.52-1.76 7.25-.79 11 0"/><path fill="#0059f5" d="M260.723 306.902c.55.01.55.01 3.34.04 1.1 0 2.21.01 3.35.02.85.01 1.71.03 2.59.04-1.39 4.16-4.28 5.29-7.88 7.44-1.47.89-2.94 1.79-4.42 2.69-.77.47-1.54.94-2.34 1.42-3.88 2.38-7.71 4.82-11.55 7.26-7.61 4.82-15.26 9.57-22.93 14.3-9 5.57-17.95 11.22-26.88 16.89-1.44-.94-2.88-1.87-4.32-2.81-.8-.53-1.6-1.05-2.42-1.59a32.5 32.5 0 0 1-5.26-4.6c22.1-12.1 44.22-24.14 66.63-35.65 1.08-.55 2.16-1.11 3.28-1.68.96-.5 1.92-.99 2.91-1.5 4.09-2.21 4.09-2.21 5.9-2.27"/><path fill="#00115b" d="M209.365 151.823c.93-.01 1.86-.03 2.81-.04.51 0 .51 0 3.06-.02l3.13-.03 6.57-.03c3.35-.02 6.7-.06 10.06-.1l6.37-.03c1-.02 2.01-.03 3.04-.05 6.93.02 6.93.02 10.23 2.28 2.02 3.24 1.9 5.46 1.37 9.2-1.36 2.16-1.36 2.16-4 4-3.6.69-7.17.75-10.82.81-.52.02-.52.02-3.18.09-11.02.26-22.01-.22-33-.9-.87-4.81-1.17-9.14-1-14 1.57-1.58 3.17-1.15 5.36-1.18"/><path fill="#005dfd" d="M502.848 180.043c3.75 3 5.83 5.77 6.52 10.51.14 5.78-.24 9.51-3.88 14.11-3.97 3.58-7.79 3.76-12.95 3.66-4.04-.51-6.26-1.91-9.54-4.32q-.66-1.05-1.35-2.13c-1.65-1.87-1.65-1.87-4.17-2.2-.94.02-1.88.05-2.85.08-5.11-.25-5.11-.25-7.46-2.51-3.17-5.09-3.17-5.09-3.17-8.24 1.12-.02 2.24-.03 3.4-.05 1.47-.04 2.94-.09 4.41-.14.74-.01 1.48-.01 2.24-.02 2.16-.09 2.16-.09 5.95-.79 1.86-2.41 1.86-2.41 3-5 5.62-5.19 12.84-6.92 19.85-2.96m-13.85 9.58c-1 2.38-1 2.38-.19 5.63.4.9.79 1.81 1.19 2.75 5.31 1.32 5.31 1.32 8.38-.13 1.62-1.87 1.62-1.87 2.06-4.37-.44-2.5-.44-2.5-1.56-4.32-3.49-2.2-6.68-2.15-9.88.44"/><path fill="#010735" d="M293 508c53 0 53 0 58 1v1h-56v105h22v-29c3.08-1.54 6.34-1.16 9.72-1.18 1.59-.02 3.18-.04 4.76-.07 2.5-.03 5-.06 7.49-.08 11.86-.07 22.41-.42 31.57-8.97 7.02-8.15 7.82-18.22 7.84-28.51.01-.52.01-.52.07-3.12.04-9.67-2.43-18.03-9.1-25.24-4.83-3.76-10.65-5.74-16.35-7.83v-1c8.16.44 14.65 3.15 20.31 9.19 9 11.39 8.61 26.07 7.69 39.81-1.54 9.05-5.77 16.8-12.98 22.59-6.87 4.58-13.49 5.72-21.58 5.61-.79-.01-1.58-.01-2.39-.01-2.5-.01-4.99-.04-7.49-.07-1.7-.01-3.4-.01-5.1-.02-4.16-.02-8.31-.06-12.46-.1v30h-26z"/><path fill="#00115c" d="M283.57 94.177c2.52.07 5.04.08 7.56.08 1.62.02 3.23.04 4.84.07.38 0 .38 0 2.27.01 3.44.13 5.45.44 8.27 2.48 1.49 2.18 1.49 2.18 1.37 5.81-.88 3.37-.88 3.37-2.88 5.37-2.37.24-2.37.24-5.37.23h-3.39l-3.68-.03c-1.24 0-2.48-.01-3.76-.01-3.3-.01-6.6-.03-9.9-.05-3.36-.02-6.73-.03-10.09-.04-6.6-.02-13.21-.05-19.81-.1 10.72-11.14 19.46-14.28 34.57-13.82"/><path fill="#00115b" d="M216.219 181.469c.59 0 .59 0 3.57-.02.62.01.62.01 3.71.05 1.22-.01 2.45-.03 3.71-.05 1.18.01 2.36.01 3.57.02.54 0 .54 0 3.25.01 3.67.64 5.34 1.93 7.97 4.52 1.06 2.94 1.06 2.94 1 6-1.56 2.65-1.56 2.65-4 5-3.25.63-3.25.63-7.07.63-.67 0-1.35 0-2.04.01-1.42 0-2.85-.02-4.27-.04-2.18-.04-4.35-.02-6.53 0l-4.16-.03c-1.25-.01-2.51-.02-3.81-.04-3.12-.53-3.12-.53-5.02-2.35-1.65-3.27-1.61-5.57-1.1-9.18 3.61-3.68 6.13-4.51 11.22-4.53"/><path fill="#010a3e" d="M242.402 507.902h3.27c3.42.01 6.84.02 10.27.04a9724.34 9724.34 0 0 1 24.06.06v21c-3.18-.03-6.36-.05-9.64-.07-3.08-.02-6.17-.03-9.26-.04-2.14-.01-4.28-.03-6.42-.04-3.09-.03-6.17-.04-9.25-.05-.48 0-.48 0-2.89-.03-4.93 0-8.92.28-13.54 2.23l-1-3c5.47-2.29 10.39-2.26 16.21-2.2.97.01 1.93.01 2.93.01 3.08.01 6.16.04 9.23.06l6.28.03c5.12.02 10.23.06 15.35.1v-15c-7.39.04-14.77.11-22.15.21l-7.53.06c-3.62.02-7.23.07-10.85.12h-3.37c-8.31.16-14.52 1.71-21.04 6.98-4.22 5.37-4.78 11.01-4.06 17.63 1.28 5.58 3.45 9.38 8 13 5.23 2.6 9.92 3.65 15.7 4.31.81.11 1.62.21 2.45.31 2.55.33 5.11.63 7.66.94 2.57.31 5.14.62 7.71.95 1.6.2 3.19.39 4.79.58 5.46.68 5.46.68 7.69 2.91.12 2.62.12 2.62 0 5-.17-.66-.17-.66-1-4-6.16-1.12-12.28-2.08-18.51-2.68-1.09-.1-2.18-.21-3.3-.32-2.22-.21-4.44-.41-6.66-.59-8.94-.91-16.68-3.12-23.03-9.79-4.08-5.32-5.07-11.02-4.5-17.62 1.37-6.47 3.87-11.72 9-16 8.67-5.2 17.57-5.15 27.4-5.1"/><path fill="#00083d" d="M8 479h93v23H36v20h61v22h-1v-21c-.92 0-.92 0-5.58.02l-18.23.03c-3.68.01-7.37.01-11.05.03-3.56.01-7.11.01-10.66.01-1.36.01-2.72.01-4.08.02h-5.69c-.54 0-.54 0-3.27.01C35 523 35 523 34 522c-.1-1.55-.13-3.1-.13-4.66 0-.47 0-.47-.01-2.84.01-.99.01-1.98.02-3-.01-.49-.01-.49-.02-3 0-.94.01-1.88.01-2.84v-2.63C34 501 34 501 35 500c1.99-.09 3.99-.12 5.99-.11h3.88c1.41 0 2.82.01 4.23.01 1.43 0 2.86.01 4.3.01 3.78 0 7.56.01 11.34.02 3.85.01 7.7.02 11.56.02 7.57.01 15.13.03 22.7.05v-19H11l-1 4v-5z"/><path fill="#01052c" d="M230 535c.28.06.28.06 1.71.39 8.37 1.8 16.79 2.55 25.3 3.29 8.6.85 17.17 2.06 23.43 8.51 4.36 5.77 6.43 12.62 5.56 19.81-1.6 6.49-3.57 11.51-8.83 15.78-7.97 4.47-14.86 4.62-23.86 4.51-1.3 0-2.59-.01-3.93-.01-3.43-.01-6.85-.04-10.28-.07-3.51-.03-7.01-.05-10.52-.06q-10.29-.06-20.58-.15v-19c2.94-.98 4.69-1.09 7.75-1.02l2.91.06c1.03.03 2.07.05 3.13.08.53.01.53.01 3.22.07 3.39.08 6.78.16 10.18.25 2.3.05 4.6.1 6.89.16 5.64.12 11.28.26 16.92.4-2 2-2 2-3.99 2.24-.4 0-.4 0-2.46-.01h-2.79l-3.02-.03c-1.02-.01-2.03-.01-3.08-.01-3.26-.01-6.52-.04-9.78-.07-2.21-.01-4.42-.01-6.63-.02-5.41-.02-10.83-.06-16.25-.1v15c7.26-.02 14.52-.06 21.78-.13 3.37-.04 6.74-.06 10.11-.07 3.89 0 7.78-.05 11.66-.09.6 0 .6 0 3.63.01 7.57-.13 13.54-1.29 19.82-5.72 4.23-4.49 4.63-9.69 4.5-15.56.02-.73.03-1.46.05-2.21-.04-5.17-1.16-8.14-4.55-12.23-8.42-7.57-20.63-7.39-31.32-8.12-5.74-.47-10.42-1.48-15.68-3.88z"/><path fill="#000a43" d="M320 248h73c1.16 3.48.8 4.3-.36 7.68l-.94 2.76c-.17.47-.17.47-1.01 2.87-.32.94-.65 1.88-.98 2.84-.62 1.82-1.25 3.63-1.88 5.44-.68 1.97-1.31 3.96-1.94 5.95C385 278 385 278 383 280c-2.27.24-2.27.24-5.14.21-1.07 0-2.14 0-3.24-.01-1.16-.01-2.33-.03-3.52-.05-1.19-.01-2.38-.02-3.6-.04-2.52-.03-5.04-.07-7.56-.11-3.86-.06-7.72-.09-11.58-.11-2.44-.03-4.88-.07-7.32-.11-1.16 0-2.32-.01-3.52-.01-.54-.01-.54-.01-3.25-.08-.95-.01-1.9-.02-2.87-.04-2.4-.65-2.4-.65-4.17-3.06-1.77-3.73-3.11-7.5-4.42-11.4-.13-.39-.13-.39-.82-2.33-.26-.77-.52-1.53-.78-2.32-.24-.68-.47-1.36-.71-2.06C320 256 320 256 320 248m2 2c1 8 1 8 7 26h54c2.2-5.13 4.06-9.97 5.69-15.25.22-.71.45-1.41.68-2.14.93-2.98 1.63-5.47 1.63-8.61z"/><path fill="#000320" d="m503.188 508.938 3.81.06-1 2c-1.85.49-1.85.49-4.19.88-4.38.91-7.38 2.11-10.81 5.12-3.92 6.65-3.47 13.48-3.51 21.03-.02 1.36-.03 2.72-.05 4.07-.05 3.56-.08 7.11-.11 10.66-.03 3.63-.07 7.27-.12 10.9-.08 7.11-.15 14.23-.21 21.34h21c-.01-1.48-.03-2.96-.05-4.49-.05-5.51-.08-11.03-.11-16.54l-.06-7.15c-.04-3.43-.06-6.86-.07-10.29-.02-1.07-.03-2.13-.05-3.22 0-5.53.17-9.56 3.34-14.31 2-2 2-2 4.52-2.22l3.15.03c1.12 0 2.24.01 3.4.02 1.17.01 2.35.03 3.56.05 1.18.01 2.36.02 3.58.02 2.93.03 5.86.06 8.79.1v-17h2v19l-28 1c-.74 3.71-1.14 6.64-1.2 10.34l-.06 3.16c-.01.55-.01.55-.05 3.37-.02 1.14-.05 2.29-.07 3.47l-.18 10.98c-.04 2.48-.09 4.96-.13 7.44-.11 6.08-.21 12.16-.31 18.24h-25c-.09-8.06-.16-16.11-.2-24.17-.03-3.75-.05-7.49-.1-11.23-.04-3.62-.07-7.24-.08-10.86 0-1.37-.02-2.74-.04-4.12-.12-7.8-.17-14.99 4.42-21.62 4.19-3.96 8.4-6.15 14.19-6.06"/><path fill="#00073a" d="M271 286c2.31.09 4.62.12 6.93.12h2.15c2.38 0 4.76 0 7.14-.01h5.12c4.63 0 9.26 0 13.9-.01 4.84 0 9.68-.01 14.52-.01 9.17 0 18.34-.01 27.51-.02 10.43-.01 20.87-.01 31.31-.02 21.47-.01 42.95-.03 64.42-.05l-1 3c-22.65.02-45.3.04-67.96.05-10.51.01-21.03.01-31.55.03-9.16.01-18.33.01-27.49.01-4.85.01-9.71.01-14.56.02h-13.7c-1.68 0-3.36.01-5.04.01h-10.74C269 289 269 289 267 288c.81 7.45 1.44 12.73 7 18h-10l4-1-1-3-2-1v-15c3-1 3-1 6 0"/><path fill="#000533" d="M225.953 120.807c.61-.01.61-.01 3.71-.05l4.02-.03c.67-.01 1.35-.01 2.04-.02l10.72-.06c2.95-.01 5.9-.04 8.86-.08 3.57-.05 7.13-.07 10.7-.08 1.36-.01 2.72-.02 4.08-.05 11.95-.2 11.95-.2 15.25 2.87 2.21 3.57 2.42 5.58 1.67 9.69-2.79 2.95-4.44 3.93-8.49 4.48-1.35.02-2.7.01-4.06-.02h-2.25c-2.44 0-4.88-.04-7.32-.07-1.69 0-3.39-.01-5.09-.01-4.45-.02-8.91-.06-13.37-.1-4.55-.04-9.1-.06-13.65-.08-8.93-.04-17.85-.11-26.77-.2 1.31-3.44 2.66-6.13 5-9l2 1-4 6c9.48-.08 18.96-.18 28.45-.28 4.4-.05 8.8-.1 13.21-.14 4.24-.04 8.49-.08 12.74-.14 1.62-.01 3.24-.03 4.87-.04 2.26-.02 4.53-.05 6.8-.08.65 0 .65 0 3.92-.04 3.01-.28 3.01-.28 5.01-2.28.31-3 .31-3 0-6-3.42-2.27-4.64-2.25-8.65-2.26-1.16 0-2.31-.01-3.51-.02-.63.01-.63.01-3.8.02-1.28 0-2.57-.01-3.9-.01-2.73 0-5.46 0-8.19.01-3.49.01-6.97.01-10.46-.01-3.33 0-6.67 0-10.01.01-1.24-.01-2.49-.01-3.77-.02-5.95.04-11.11.21-16.71 2.28.81-1.93.81-1.93 2-4 3.21-1.07 5.58-1.15 8.95-1.19"/><path fill="#00042a" d="M116 479h27l-1 57h-2v-56h-23v105l23-1 1-29h1l1 32h-27zM389 556c1.99 2.98 2.53 4.82 3.31 8.25 2.14 8.03 5.42 12.43 12.53 16.71 4.71 2.27 8.95 3.29 14.17 3.36l3.51.06 3.75.03 3.88.06c3.38.05 6.77.09 10.15.13 3.46.04 6.92.09 10.38.14 6.77.1 13.55.18 20.32.26v-15c-.66.01-.66.01-3.99.03-4.88.04-9.76.06-14.64.08-2.12.01-4.23.02-6.34.04-3.04.03-6.08.04-9.11.05l-2.87.03h-2.67c-.78 0-1.55.01-2.35.01C427 570 427 570 424 568h49v19c-7.62.11-15.23.21-22.85.26-3.54.02-7.07.06-10.61.12-4.08.06-8.16.09-12.24.11-.63.01-.63.01-3.79.08-9.99 0-18.94-2.01-26.51-8.88-6.08-6.78-8.15-13.78-8-22.69"/><path fill="#020d46" d="M457 511c4.35.31 7.27 1.32 10.55 4.28 9.76 11.58 7.45 24.94 7.45 39.72h-57v-16c7.04-.8 13.92-1.16 21-1.12.47-.01.47-.01 2.85-.02.45 0 .45 0 2.71.01H447c2 .13 2 .13 4 1.13v2h-31v12h53c-2.43-30.43-2.43-30.43-9-37-2.5-1.67-4.06-2.66-7-3z"/><path fill="#020836" d="m498 362 5 1v4c-1.61 1.41-1.61 1.41-3.9 2.71-.86.49-1.72.99-2.6 1.5-.95.53-1.9 1.06-2.88 1.6-.49.28-.49.28-2.97 1.71-2.11 1.21-4.23 2.41-6.35 3.61a956 956 0 0 0-9.81 5.64c-12.62 7.31-25.28 14.56-37.95 21.78-2.57 1.47-5.14 2.93-7.7 4.4-9.35 5.35-18.71 10.69-28.09 15.99-.94.53-1.88 1.06-2.85 1.61-1.78 1-3.56 2.01-5.35 3.01-1.72.97-3.44 1.95-5.15 2.93-.81.46-1.61.92-2.45 1.39-.71.41-1.43.82-2.16 1.24-1.79.88-1.79.88-3.79.88v-2c.3-.16.3-.16 1.84-.99 20.47-11.01 20.47-11.01 28.79-16.49 3.39-2.17 6.92-4.07 10.47-5.97 3.19-1.71 6.36-3.47 9.53-5.23a909 909 0 0 1 6.83-3.78l2.24-1.24c1.49-.82 2.97-1.64 4.46-2.46 4.77-2.64 9.46-5.4 14.13-8.22 5.14-3.07 10.34-6.02 15.52-9 8.82-5.06 17.6-10.18 26.19-15.62-.16-.66-.16-.66-1-4"/><path fill="#01032c" d="M360 294h56c.16 1.49.16 1.49 1 9 2.07 1.71 2.07 1.71 5 3 1.25.83 2.49 1.69 3.71 2.57.68.48 1.36.96 2.07 1.45.71.51 1.42 1.02 2.16 1.54.74.53 1.48 1.05 2.24 1.59 6.95 4.93 13.89 9.89 20.82 14.85l-2 2c-1.47-1.05-2.95-2.1-4.42-3.15-1.27-.91-2.55-1.82-3.82-2.72-3.85-2.75-7.66-5.55-11.45-8.38-4.47-3.33-9.03-5.65-14.19-7.74C415 306 415 306 414 296h-52l2 7v4h-16l1-6 1 4h12c-.33-.89-.66-1.77-1-2.69-1-3.31-1-3.31-1-8.31"/><path fill="#020b42" d="m342 9-1 2c-3.6.84-7.23 1.41-10.88 2.02-8.89 1.85-16.59 6.84-24.31 11.42-1.04.61-2.08 1.22-3.15 1.85-3.23 1.9-6.44 3.8-9.66 5.71-.99.59-1.98 1.17-3 1.78-.95.56-1.91 1.13-2.89 1.71-17.12 10.14-17.12 10.14-25.36 14.82-.66.38-1.32.76-2.01 1.15C255.24 54 255.24 54 253 54v2c-.86.41-1.72.83-2.61 1.25-7.51 3.67-14.62 7.61-21.65 12.15-2.35 1.37-4.08 2.15-6.74 2.6v-2c.33-.19.33-.19 2.01-1.15 3.16-1.83 6.33-3.65 9.49-5.47q.87-.51 1.77-1.02c8.36-4.83 16.71-9.67 25.04-14.55 8.39-4.9 16.8-9.75 25.24-14.54 4.74-2.71 9.46-5.45 14.14-8.26 6.2-3.69 12.44-7.24 18.87-10.51.32-.16.32-.16 1.91-.99 7.04-3.5 13.69-4.79 21.53-4.51"/><path fill="#010840" d="M333.934 176.734c1.73 0 3.45 0 5.18-.01 3.6 0 7.2.01 10.8.01 4.62.02 9.23.01 13.85 0 3.56-.01 7.11-.01 10.67 0 1.7 0 3.41 0 5.11-.01 2.37 0 4.74.01 7.11.02.71-.01 1.41-.01 2.13-.02 3.64.04 5.1.2 8.22 2.28l-2.85.03c-8.9.09-17.8.2-26.7.3-4.58.06-9.15.11-13.73.16-4.42.05-8.84.1-13.26.16-1.68.02-3.36.04-5.04.05-26.06.27-26.06.27-31.42 4.3l-3 1c-1.01 1.71-1.01 1.71-2 4-2.13 4.03-4.28 8.04-6.44 12.06-.59 1.1-1.17 2.2-1.78 3.34-.56 1.05-1.13 2.11-1.72 3.19-.51.97-1.03 1.93-1.56 2.93-1.34 2.2-2.59 3.78-4.5 5.48.89-5.39 3.14-9.54 5.68-14.32.43-.81.85-1.63 1.28-2.47 9.51-18 9.51-18 17.91-20.85 8.61-1.87 17.3-1.65 26.06-1.63"/><path fill="#000635" d="M324.252 183.66h2.37c2.55 0 5.11.02 7.66.05 1.78 0 3.56.01 5.35.01 4.66.01 9.33.04 14 .07 4.78.04 9.55.05 14.32.06q14.025.06 28.05.15c.16.33.16.33 1 2-.49 0-.49 0-2.95.03-9.18.07-18.36.16-27.54.26-4.72.05-9.44.09-14.16.13-4.55.04-9.11.09-13.67.14-1.74.02-3.47.03-5.21.04-2.43.02-4.87.05-7.31.08-.71 0-1.42.01-2.15.01-5.69.09-11.72.52-16.31 4.11-1.84 2.38-3.38 4.76-4.87 7.37-.56.97-1.13 1.95-1.71 2.95l-1.75 3.07c-1.15 2.02-2.31 4.03-3.47 6.04-.51.89-1.02 1.78-1.55 2.7-1.35 2.07-1.35 2.07-3.35 3.07.57-4.01 1.83-6.72 4-10.12 1.69-2.69 2.99-4.86 4-7.88h2c.22-.7.45-1.4.69-2.12 2.28-5.01 4.8-8.57 9.97-10.54 4.27-1.49 8.1-1.75 12.59-1.68"/><path fill="#000633" d="M346.824 374.805c.86 0 1.72.01 2.61.01q4.125.015 8.25.06l5.6.03c4.57.02 9.14.05 13.72.1.65 2.56 1.31 5.12 1.96 7.68.18.72.37 1.44.56 2.18.94 3.73 1.75 7.36 2.1 11.2.38 3.94.38 3.94 1.38 7.44 1.18 4.15 1.63 8.2 2 12.5h-2c-2.24-8.53-4.07-17.09-5.69-25.75-.76-4.05-1.53-8.09-2.31-12.25l-38-1-1 10c-.45 3.03-.92 6.04-1.44 9.06-.12.76-.25 1.51-.37 2.29-.33 1.9-.75 3.77-1.19 5.65l-2 1c.41-9.42 1.02-19 4-28 3.93-2.63 7.26-2.26 11.82-2.2"/><path fill="#020d45" d="M439 225c4.44.51 6.8 1.89 10 5 6.28 8.8 6.31 19.36 6.27 29.84v3.28c0 2.26 0 4.53-.01 6.8-.01 3.47 0 6.94.01 10.4v6.64c0 1.03 0 2.07.01 3.13-.01.97-.01 1.93-.02 2.93 0 .42 0 .42-.01 2.55-.29 2.8-1.01 4.92-2.25 7.43-.33.16-.33.16-2 1 .01-.8.01-1.6.02-2.43.06-7.56.11-15.12.14-22.68.01-3.89.03-7.78.07-11.67.03-3.75.05-7.5.05-11.26.01-1.43.02-2.86.04-4.29.02-2.01.02-4.01.02-6.02.01-1.14.01-2.28.02-3.46-.53-4.74-2.12-8.05-5.62-11.27l-2.43-1.73c-1.45-1.05-2.89-2.11-4.31-3.19z"/><path fill="#000632" d="M229 509v2c-.81.23-1.62.46-2.45.7-7.77 2.37-12.29 4.24-16.36 11.55-2.1 6.63-1.91 12.54.84 18.96 2.93 5.39 7.34 7.89 12.97 9.79 2.88.62 5.78.98 8.71 1.32.8.1 1.61.2 2.44.31 2.55.32 5.11.63 7.66.93 2.57.31 5.15.63 7.72.95 1.59.2 3.19.39 4.78.58 5.46.68 5.46.68 7.69 2.91.12 2.62.12 2.62 0 5-.17-.66-.17-.66-1-4-6.15-1.11-12.28-2.08-18.51-2.68-1.09-.1-2.18-.21-3.3-.32-2.22-.21-4.44-.41-6.65-.59-8.95-.91-16.69-3.12-23.04-9.79-4.08-5.32-5.07-11.02-4.5-17.62 1.37-6.47 3.87-11.72 9-16 4.41-2.63 8.76-4.68 14-4"/><path fill="#010a40" d="M216.219 181.469c.59 0 .59 0 3.57-.02.62.01.62.01 3.71.05 1.22-.01 2.45-.03 3.71-.05 1.18.01 2.36.01 3.57.02.54 0 .54 0 3.25.01 3.7.65 5.4 1.82 7.97 4.52v4h-2c-.16-.66-.16-.66-1-4h-30c-1 5-1 5 0 8 4.08.05 8.15.09 12.23.11 1.38.01 2.77.02 4.15.04 2 .03 3.99.04 5.98.05l3.64.03c3-.23 3-.23 6-2.23-.87 3.88-.87 3.88-2 5-4.38.27-8.77.27-13.15.3-2.21.01-4.41.06-6.61.1l-4.2.03c-1.28.01-2.55.03-3.87.04-3.17-.47-3.17-.47-5.08-2.28-1.63-3.28-1.6-5.58-1.09-9.19 3.61-3.68 6.13-4.51 11.22-4.53"/><path fill="#01083a" d="M303.438 241.75c3.35 2.94 5.61 6.25 7.56 10.25v2h-2c-1.01-1.57-1.01-1.57-2.12-3.69-3.65-6.02-8.56-8.91-15.32-10.62-6.18-1.12-12.91-1.94-18.56 1.31-2.25 3.37-2.28 5.11-1.67 9.06.67 1.94.67 1.94 3.42 4.38 4.48 2.15 8.68 2.67 13.6 3.06 1 .08 1.99.17 3.02.25 1.04.08 2.07.17 3.13.25 2.05.16 4.11.33 6.16.5.9.07 1.81.14 2.74.22 2.58.28 5.07.73 7.6 1.28v1c-7.45.1-14.82-.13-22.25-.75-.47-.03-.47-.03-2.85-.19-6.94-.58-11.97-1.95-16.9-7.19-1.52-4.38-1.28-8.42 0-12.87 9.52-8.49 24.56-3.28 34.44 1.75"/><path fill="#020c40" d="M188.313 507.625c1.42.03 2.85.06 4.27.08 3.47.07 6.94.17 10.42.3-1.62 3.4-3.48 5.79-6.07 8.56-3.24 3.54-6.36 7.13-9.37 10.87-3.25 4-6.56 7.92-10 11.75-.82.92-1.65 1.85-2.5 2.8-2.06 2.02-2.06 2.02-4.06 2.02 0-2 0-2 2.17-4.27.93-.91 1.86-1.81 2.83-2.73 6.11-6.47 11.97-13.02 17.44-20.04 1.56-1.96 1.56-1.96 3.56-3.96-2.49-2.49-8.8-1.38-12.13-1.44-.51-.03-.51-.03-3.13-.14-5.35-.08-8.82.03-12.98 3.6-.95.97-1.88 1.95-2.76 2.98 5.51-11.08 10.59-10.81 22.31-10.38"/><path fill="#010b48" d="m268 285 3 2c2.17.26 2.17.26 4.73.28.48 0 .48 0 2.94.03.53 0 .53 0 3.23.01.56 0 .56 0 3.4.03 3.71.03 7.43.05 11.15.06l7.72.06q9.135.075 18.27.12c6.93.04 13.86.09 20.79.14 14.26.1 28.51.19 42.77.27v1c-15.22.02-30.44.04-45.66.05-7.07.01-14.13.01-21.2.03-6.82.01-13.63.01-20.44.01-2.61.01-5.22.01-7.82.02h-10.91c-.55.01-.55.01-3.3.01h-5.6C269 289 269 289 267 288c.81 7.45 1.44 12.73 7 18h-10l4-1-1-3-2-1v-15z"/><path fill="#020a3c" d="M219.313 73.313c.56.23 1.11.45 1.69.69l-2.73 1.51c-3.58 1.99-7.14 4.01-10.7 6.03-1.78 1.01-3.55 2-5.33 3-17.26 9.67-31.38 18.9-38.24 38.46-.79 3.65-1.44 7.31-2 11l-2-2c.23-12.61 7.39-24.25 15.99-33.04 6.75-6.44 14.22-10.9 22.32-15.34 1.26-.7 2.52-1.41 3.78-2.11 2.31-1.29 4.62-2.57 6.93-3.85 1.94-1.08 3.85-2.21 5.72-3.4 2.26-1.26 2.26-1.26 4.57-.95"/><path fill="#00042e" d="M208 153c6.35-.08 12.71-.13 19.06-.16 2.16-.02 4.33-.04 6.49-.07 3.1-.03 6.21-.05 9.31-.06.97-.02 1.94-.03 2.94-.05h2.73c.79-.01 1.58-.01 2.4-.02 2.63.46 3.5 1.23 5.07 3.36.47 3.67.63 5.98-1.35 9.17-4.21 2.91-8.52 2.55-13.53 2.64-1.05.03-2.1.07-3.18.1-10.67.25-21.3-.23-31.94-.91v-2l1.69-.03c5.81-.11 11.62-.22 17.43-.34 2.17-.05 4.33-.09 6.5-.13 3.12-.05 6.23-.12 9.34-.18.97-.02 1.95-.04 2.95-.05l2.73-.06c.8-.02 1.59-.04 2.41-.05C251 164 251 164 253 163c.12-5.75.12-5.75-1-8-7.26-.16-7.26-.16-44-1z"/><path fill="#010835" d="M310 423c1.63.81 3.25 1.63 4.88 2.44 1.43.71 2.85 1.43 4.28 2.14 3.77 1.88 7.54 3.77 11.29 5.7l2.15 1.1c1.37.69 2.72 1.39 4.08 2.09 10.69 5.43 25.63 5.2 37.07 2.03 1.43-.47 2.85-.96 4.25-1.5v2c-13.71 5.25-26.33 7.27-40.2 1.24-4.96-2.26-9.79-4.75-14.61-7.3-.83-.44-1.67-.87-2.52-1.32-.81-.42-1.61-.84-2.44-1.28-.72-.38-1.44-.76-2.17-1.14-2.18-1.27-4.15-2.57-6.06-4.2z"/><path fill="#000733" d="m211.018 566.918 2.68.06 3.04.06c1.09.03 2.18.06 3.3.08 1.11.03 2.21.05 3.36.07 3.55.08 7.11.17 10.66.25 2.41.05 4.81.11 7.22.16 5.91.13 11.81.26 17.72.4-2 2-2 2-3.99 2.24-.4 0-.4 0-2.46-.01h-2.79l-3.02-.03c-1.01-.01-2.03-.01-3.08-.01-3.26-.01-6.52-.04-9.78-.06l-6.62-.03c-5.42-.02-10.84-.06-16.26-.1v15h-2l-1 2c-.03-3.14-.05-6.29-.06-9.44l-.03-2.72c0-.85 0-1.7-.01-2.58 0-.4 0-.4-.01-2.4.16-2.63.5-2.83 3.13-2.94"/><path fill="#010939" d="M424.734 507.832c.72 0 1.44-.01 2.18-.01 1.51-.01 3.02-.01 4.53-.01 2.31 0 4.63-.02 6.94-.04h4.41c.35-.01.35-.01 2.1-.02 4.88.02 4.88.02 7.11 2.25-.52 0-.52 0-3.13.03-3.89.04-7.77.1-11.65.18l-5.01.06c-12.08.11-23.45.63-33.21 8.73-2.87 3.76-4.98 7.74-7 12h-1c-.15-6.63 2.91-10.01 7.39-14.69 7.85-6.95 16.11-8.46 26.34-8.48"/><path fill="#000429" d="m262 233 2 1c-.33.5-.33.5-2 3-.98 3.71-1.15 7.25-1.21 11.08l-.06 3.63c-.01 1.29-.03 2.58-.05 3.9l-.06 4.02-.15 10.53c-.05 3.58-.11 7.17-.16 10.76-.11 7.02-.21 14.05-.31 21.08l-2-1c-.07-7.7-.12-15.4-.16-23.11-.01-3.57-.03-7.15-.07-10.73-.03-3.45-.05-6.91-.05-10.36-.01-1.96-.04-3.91-.06-5.86 0-6.41.13-11.32 3.34-16.94z"/><path fill="#01062b" d="M150 555c3.6 1.47 5.34 3.37 7.69 6.44.69.89 1.38 1.78 2.09 2.69.73.95 1.46 1.9 2.22 2.87 1.58 1.94 3.16 3.88 4.75 5.81 1.42 1.73 2.84 3.46 4.25 5.19.37.45.37.45 2.27 2.7C175 583 175 583 175 585h30v3c-28.1 1.25-28.1 1.25-34.05-3.47-2.41-2.59-4.17-5.52-5.85-8.63-1.98-3.42-4.59-6.36-7.1-9.4-2.94-3.69-5.67-7.39-8-11.5"/><path fill="#010735" d="M427.23 525.734c.48 0 .48 0 2.93-.01.5.01.5.01 3.03.03.5-.01.5-.01 3.06-.03.96 0 1.92.01 2.92.01.88 0 1.76 0 2.66.01 2.17.26 2.17.26 4.17 2.26l-2.03.06c-3.05.09-6.11.2-9.16.31l-3.2.09-3.09.12c-.47.02-.47.02-2.84.1-3.71.44-6.65 1.32-9.37 3.94-3.66 6.62-4.39 14.47-2.78 21.81 1.36 4.5 2.73 7.53 6.47 10.57l3 3-6-1v-2h-2c-3.72-6.35-4.68-11.19-4.63-18.5l-.09-2.73c-.01-5.98 1.23-9.51 4.94-14.2 3.62-3.2 7.3-3.83 12.01-3.84"/><path fill="#00011f" d="M430.766 537.867h3.2c.54 0 .54 0 3.28.01 1.11-.01 2.21-.01 3.34-.01h6.08c2.33.13 2.33.13 4.33 1.13v2h-31v12h54v1h-55v-15c4.21-.7 7.6-1.13 11.77-1.13"/><path fill="#01042a" d="M304 97h3c1.34 6.34 1.34 6.34-.14 9.21-2.51 2.41-3.89 2.28-7.34 2.24h-3.4l-3.66-.06c-1.24-.01-2.48-.01-3.76-.02-3.29-.02-6.58-.05-9.87-.1-3.35-.04-6.71-.05-10.07-.07-6.59-.05-13.17-.12-19.76-.2l1-2c8.91-.16 8.91-.16 54-1 1-6 1-6 0-8"/><path fill="#00032a" d="M320 248c11.22.16 11.22.16 68 1v1l-65 1c2 10 2 10 3.12 13.31.89 2.73 1.05 4.84.88 7.69h-2c-.28-.99-.55-1.97-.84-2.99-.37-1.3-.73-2.59-1.1-3.89-.18-.65-.36-1.3-.55-1.97-1.4-4.92-1.4-4.92-2.51-7.15z"/><path fill="#000739" d="M348 312h18c.52 2.39 1.03 4.79 1.56 7.25.09.37.09.37.5 2.26.78 3.73.88 5.72-.06 9.49h-22v-1h21c-.5-1.9-.99-3.8-1.5-5.75-.95-3.65-1.5-6.45-1.5-10.25h-16c-.14 1.75-.29 3.51-.44 5.31-.26 3.15-.56 5.68-1.56 8.69h-2c.09-1.36.2-2.71.31-4.06.06-.76.12-1.51.18-2.29C345 319 345 319 348 312"/><path fill="#020a3d" d="M292 308c-.96.65-1.92 1.31-2.9 1.98-7.18 4.92-14.32 9.86-21.41 14.9-9.15 6.48-18.41 12.81-27.69 19.12l-2-1c6.36-5.33 12.96-10.12 19.82-14.78 4.56-3.1 9.07-6.25 13.56-9.47.57-.41 1.14-.82 1.73-1.24 2.64-1.88 5.25-3.78 7.84-5.72.88-.66 1.77-1.31 2.67-1.98.76-.57 1.52-1.14 2.29-1.73 2.57-1.33 3.41-.89 6.09-.08"/><path fill="#010631" d="M318 527c4-.09 8-.14 12-.19 1.13-.02 2.25-.05 3.41-.07 13.89-.13 13.89-.13 19.14 4.68 4.32 4.93 4.63 9.11 4.64 15.39l.03 2.12c.02 5.75-.92 10.05-4.03 14.88-2.45 2.45-3.8 2.91-7.19 3.19.76-.7 1.53-1.4 2.31-2.12 5.55-5.94 6.86-11.92 6.69-19.88-.76-4.88-1.91-8.71-5.12-12.5-6.95-3.62-14.75-3.85-22.44-4.12l-2.77-.12c-2.22-.1-4.45-.18-6.67-.26z"/><path fill="#000739" d="m503.188 508.938 3.81.06-1 2c-1.85.49-1.85.49-4.19.88-4.38.91-7.38 2.11-10.81 5.12-3.92 6.65-3.47 13.48-3.51 21.03-.02 1.36-.03 2.72-.05 4.07-.05 3.56-.08 7.11-.11 10.66-.03 3.63-.07 7.27-.12 10.9-.08 7.11-.15 14.23-.21 21.34h-1c-.22-7.79-.42-15.59-.6-23.39-.08-3.62-.17-7.25-.27-10.87-.1-3.5-.19-7-.25-10.5-.05-1.97-.11-3.95-.18-5.92-.12-7.13.14-13.29 4.3-19.32 4.19-3.96 8.4-6.15 14.19-6.06"/><path fill="#020a3d" d="M278.063 204.375c1.94 1.62 1.94 1.62 2.94 3.62.04 2.34.04 4.67 0 7-.67-1.33-.67-1.33-4-8l-7.44-.06c-.71-.01-1.41-.01-2.14-.02-1.81-.01-3.62.03-5.42.08-1 1-1 1-1.14 3.04.01.81.01 1.63.01 2.46 0 .82 0 1.63-.01 2.47.14 2.03.14 2.03 1.14 3.03 2.84.29 5.68.45 8.53.63.81.12 1.63.25 2.47.37l1 2c-10.4.9-10.4.9-13.95-1.08-2.57-2.77-3.05-4.82-3.11-8.54 1.13-3.61 2.08-5.1 5.06-7.38 5.3-1.76 10.93-1.92 16.06.38"/><path fill="#00032c" d="M298 294h54l-1 6c-.17-.66-.17-.66-1-4l-52 1z"/><path fill="#010734" d="M317 529h1c.62 12.68 1.13 25.31 1 38h26l-1 2c-4.31.03-8.62.05-12.94.06l-3.73.03c-1.17 0-2.34 0-3.54.01-.55 0-.55 0-3.29.01C318 569 318 569 317 568c-.09-2.88-.12-5.74-.1-8.63 0-.86.01-1.73.01-2.62q0-4.155.03-8.31c0-1.88.01-3.75.01-5.63.01-4.6.03-9.21.05-13.81"/><path fill="#010a42" d="M415 294h1c.01.61.03 1.23.04 1.86l.15 2.45c.01.4.01.4.1 2.43 1.03 3.27 2.7 3.67 5.71 5.26 1.25.84 2.49 1.7 3.71 2.57.68.48 1.36.96 2.07 1.45.71.51 1.42 1.02 2.16 1.54.74.53 1.48 1.05 2.24 1.59 6.95 4.93 13.89 9.89 20.82 14.85l-2 2c-1.47-1.05-2.95-2.1-4.42-3.15-1.27-.91-2.55-1.82-3.82-2.72-3.85-2.75-7.66-5.55-11.45-8.38-4.49-3.32-9.14-5.86-14.19-8.23-2.12-1.52-2.12-1.52-2.95-3.96-.22-3.29.26-6.32.83-9.56"/><path fill="#010838" d="M538 510h2v19l-28 1-1 5-2-3c1.2-2.48 1.2-2.48 4-5 4.26-.66 8.46-.47 12.75-.31.59.01.59.01 3.56.07 2.9.05 5.79.14 8.69.24z"/><path fill="#01083b" d="M430.375 235.75c1.12-.03 2.24-.05 3.4-.08 3.56.36 5.37 1.21 8.22 3.33 2.09 2.66 2.92 4.57 3.57 7.87-.82 4.52-2.97 7.31-6.57 10.13-3.87.94-3.87.94-7 1 2.18-2.17 4.32-3.52 7-5h2c.06-1.79.1-3.58.13-5.37.02-1 .05-2 .07-3.03-.2-2.6-.2-2.6-2.2-4.6-2.81-.94-5.37-1.12-8.32-1.1-.4 0-.4 0-2.42.01l-2.5.03c-.85 0-1.69.01-2.55.01-2.07.01-4.14.03-6.21.05 4.6-2.38 8.19-3.18 13.38-3.25"/><path fill="#04114b" d="M507 508h33v2c-2.96 1.48-5.95 1.12-9.2 1.1-.7 0-1.41-.01-2.14-.01q-3.39 0-6.78-.03c-1.54 0-3.07-.01-4.6-.01-3.76-.01-7.52-.03-11.28-.05z"/><path fill="#010b3f" d="M282.246 94.362c2.34.08 4.68.1 7.03.12 1.49.02 2.98.05 4.48.08.35 0 .35 0 2.12.03 4.89.17 4.89.17 7.12 2.41-.51-.01-.51-.01-3.13-.02-3.88-.02-7.76.02-11.64.06-1.67.01-3.34.01-5.02 0-10.87-.07-18.55.55-27.21 7.96 0-3 0-3 1.79-4.81 8.12-5.74 14.87-6.14 24.46-5.83"/><path fill="#010838" d="m430.188 266.938 2.73.03 2.08.03 1 2c-.36.03-.36.03-2.19.19-4.98.43-9.89.88-14.81 1.81l1 5c11.52 1.52 11.52 1.52 17-1l1-5 2 1v6c-4.26 2.06-7.86 2.3-12.56 2.32-1.3.01-2.6.03-3.94.05-3.58-.38-4.95-.91-7.5-3.37.19-2.31.19-2.31 1-5 4.29-3.16 7.94-4.13 13.19-4.06"/><path fill="#01093b" d="M244 86v3a61 61 0 0 1-6.03 3.84l-1.88 1.09c-2.01 1.16-4.02 2.3-6.03 3.45l-3.96 2.28q-3.81 2.205-7.65 4.38c-2.11 1.2-4.21 2.41-6.29 3.65-.8.46-1.59.93-2.41 1.41-.67.4-1.33.8-2.02 1.21C206 111 206 111 203 110a9332 9332 0 0 1 41-24"/><path fill="#020938" d="M232 379c4.23 1.31 8.07 2.94 12 5v2c.88.27 1.76.54 2.66.81 3.18 1.13 5.81 2.45 8.7 4.16.49.28.49.28 2.94 1.73.99.59 1.99 1.19 3.01 1.8 1.02.59 2.03 1.19 3.07 1.8 7.49 4.44 7.49 4.44 8.62 6.7-4.02-1.24-7.55-2.71-11.2-4.79-.95-.55-1.91-1.09-2.9-1.65-1-.58-2-1.15-3.02-1.75-1.03-.58-2.05-1.17-3.1-1.77-2.02-1.16-4.04-2.31-6.05-3.47-2.3-1.32-4.6-2.62-6.91-3.91-1.07-.61-2.15-1.22-3.26-1.85-.9-.51-1.81-1.02-2.74-1.54-.6-.42-1.2-.84-1.82-1.27z"/><path fill="#000630" d="M171 546c4.08 1.55 6.38 4.46 9.06 7.75.48.57.95 1.14 1.44 1.73 4.86 5.88 9.57 11.89 14.23 17.93.88 1.1 1.8 2.18 2.74 3.23 1.24 1.39 2.4 2.87 3.53 4.36l-1 3c-7.29-8.46-14.26-17.1-21-26-1.33-1.75-2.66-3.5-4-5.25-.54-.71-1.07-1.41-1.62-2.14C173 549 173 549 171 548z"/><path fill="#010838" d="M274 403c4.57 1.36 8.4 3.22 12.5 5.62 1.22.72 2.45 1.43 3.67 2.15q.93.54 1.89 1.11c1.97 1.14 3.95 2.25 5.93 3.35l1.94 1.09c1.24.69 2.47 1.38 3.71 2.07 4.25 2.39 4.25 2.39 5.36 4.61-4.14-.6-7.15-1.99-10.78-4.05-1.09-.62-2.18-1.23-3.3-1.87-1.13-.64-2.26-1.29-3.42-1.96-1.13-.63-2.26-1.27-3.42-1.93-3.03-1.72-6.06-3.44-9.08-5.19l-2.86-1.58c-.71-.47-1.41-.94-2.14-1.42z"/><path fill="#01052f" d="m206 192 1 2c4.36.05 8.72.09 13.08.11 1.48.01 2.97.02 4.45.04 2.13.03 4.26.04 6.4.05l3.88.03C238 194 238 194 241 192c-.88 3.88-.88 3.88-2 5-4.4.22-8.81.19-13.21.19-2.21 0-4.43.02-6.64.03-1.41.01-2.81.01-4.21.01-1.28 0-2.56.01-3.88.01C208 197 208 197 206 195z"/><path fill="#020a3e" d="M310 47v3c-1.86 1.44-1.86 1.44-4.46 2.93l-2.87 1.66c-.5.29-.5.29-3.05 1.72-1.94 1.12-3.89 2.24-5.83 3.37-.96.54-1.92 1.09-2.91 1.65-3.67 2.13-7.25 4.39-10.81 6.69C278 69 278 69 275 68c2.62-1.67 5.25-3.34 7.88-5 .74-.48 1.49-.95 2.26-1.45l2.16-1.36c.66-.42 1.32-.84 2-1.27C291 58 291 58 293 58v-2c.47-.19.47-.19 2.88-1.12 4.99-2.13 9.52-5.02 14.12-7.88"/><path fill="#000530" d="M356.438 365.875c.37 0 .37 0 2.24.01 5.17.04 10.2.37 15.32 1.11-2 2-2 2-5.16 2.23-1.35 0-2.69-.01-4.03-.03-.71 0-1.42-.01-2.15-.01q-3.39-.015-6.78-.06l-4.6-.03c-3.76-.02-7.52-.05-11.28-.1v-2c5.53-.78 10.87-1.16 16.44-1.12"/><path fill="#01072f" d="M196 514h2c-1.6 3.86-4.22 6.58-7.06 9.56-4.59 4.89-8.88 9.92-13.06 15.16-1.56 1.89-3.03 3.68-4.88 5.28h-2c0-2 0-2 2.17-4.27.93-.9 1.87-1.8 2.83-2.73 6.15-6.49 12.03-13.09 17.54-20.14C195 515 195 515 196 514"/><path fill="#020b42" d="M453 330c3.02.61 5.09 1.54 7.61 3.29.67.47 1.34.93 2.03 1.41.69.49 1.39.98 2.11 1.49q1.065.735 2.16 1.5c4.77 3.34 9.48 6.75 14.09 10.31l-3 1c-2.04-1.27-4.04-2.61-6-4l-3-1c-1.09-1.13-2.18-2.26-3.26-3.39-3.23-2.99-6.91-5.41-10.51-7.94-.74-.55-1.47-1.1-2.23-1.67z"/><path fill="#010d4b" d="M212 311h21c-2.59 2.59-5.56 3.75-8.88 5.19l-1.89.86c-3.81 1.66-5.04 2-9.23.95l8-4c-1.3-.12-2.6-.25-3.94-.38-2.21-.21-2.21-.21-4.06-.62z"/><path fill="#000633" d="M430.57 537.867h3.21c1.11 0 2.21 0 3.34.01.56 0 .56 0 3.37-.01h6.14c2.37.13 2.37.13 4.37 1.13v2h-30v-2c3.25-.96 6.19-1.13 9.57-1.13"/><path fill="#01093c" d="M413 187c4.53 4.25 7.25 9.14 10.31 14.5.57.95 1.13 1.9 1.71 2.88.52.92 1.05 1.83 1.59 2.78.49.83.97 1.66 1.47 2.52 1.04 2.63.91 3.72-.08 6.32-.4-.74-.8-1.47-1.21-2.23-.53-.98-1.06-1.95-1.6-2.96l-1.58-2.92c-1.98-3.55-4.06-7.01-6.22-10.46-.52-.84-1.04-1.69-1.58-2.55-.53-.85-1.06-1.7-1.6-2.58C413 190 413 190 413 187"/><path fill="#01083a" d="M272.414 70.246q.78.375 1.59.75c-.97.58-1.94 1.16-2.93 1.76-.63.38-1.26.75-1.9 1.14l-4.11 2.46c-3.08 1.84-6.15 3.7-9.18 5.61-.87.55-1.74 1.1-2.63 1.66-.76.49-1.52.97-2.3 1.48-1.95.89-1.95.89-4.95-.11.56-.32 1.11-.65 1.69-.99 4.04-2.4 8.05-4.81 11.95-7.44.62-.42 1.23-.83 1.87-1.26 1.23-.82 2.45-1.65 3.66-2.5 4.29-2.86 4.29-2.86 7.24-2.56"/><path fill="#020a3e" d="M403 188c4.28 1.52 5.69 4.25 7.94 8.06.34.58.69 1.16 1.04 1.76 1.02 1.72 2.02 3.45 3.02 5.18.55.91 1.1 1.82 1.66 2.75.47.79.93 1.57 1.4 2.37.41.69.81 1.37 1.23 2.08.71 1.8.71 1.8-.29 4.8-3.85-6.38-7.64-12.79-11.39-19.24-1.52-2.6-3.06-5.18-4.61-7.76"/><path fill="#010d49" d="M150 553v3h-8l-1 28h-1v-30c3.21-1.61 6.44-1.06 10-1"/><path fill="#010732" d="M342 340h1c.24 6.44-.65 12.21-2 18.5-.19.92-.38 1.84-.58 2.78-.47 2.24-.94 4.48-1.42 6.72h-1c-.5-8.87-.05-19.89 4-28"/><path fill="#02093c" d="m454 208 2 1c.42 4.27.48 6.33-2.06 9.88-4.44 3.21-8.03 3.36-13.38 2.68-.84-.18-1.69-.37-2.56-.56l1-2c2.94-.41 2.94-.41 6.56-.62 1.2-.08 2.4-.15 3.63-.23.46-.03.46-.03 2.81-.15v-2h2z"/><path fill="#010736" d="M370 340c2.34 3.51 2.9 6.75 3.62 10.81.14.7.27 1.4.41 2.12.75 4.08 1.11 7.91.97 12.07h-2c-3.44-16.71-3.44-16.71-3-25"/><path fill="#010734" d="M202 112v2a77 77 0 0 1-3.69 3c-6.07 5.14-8.45 11.77-11.31 19-1.51-4.35-.15-6.69 1.76-10.69C195.89 112 195.89 112 202 112"/><path fill="#01083b" d="M186 288c2.74 1.37 2.97 2.91 4.19 5.69 3.34 6.91 8.14 10.67 14.81 14.31-3 1-3 1-5.05.1-6.86-4.48-11.83-9.54-13.83-17.66z"/><path fill="#01083a" d="m163 519 3 1c-.38.41-.77.82-1.16 1.24-1.74 1.85-3.48 3.71-5.22 5.57-.6.65-1.2 1.29-1.82 1.95l-1.76 1.88c-.54.58-1.07 1.15-1.62 1.73C153 534 153 534 151 537c-2.16.29-2.16.29-4.62.19-.41-.02-.41-.02-2.48-.08-.63-.04-1.25-.07-1.9-.11v-1c1.02-.03 2.05-.07 3.11-.1 5.08-1.17 6.93-3.4 10.2-7.28.53-.59 1.05-1.18 1.59-1.78 2.23-2.54 4.22-5.02 6.1-7.84"/><path fill="#000c44" d="M362 298h1l1 9h-16l1-6 1 4h12l-1-4z"/><path fill="#020d45" d="M446 288h1c.05 1.94.09 3.87.12 5.81.03 1.08.05 2.16.08 3.27C447 300 447 300 445 303l5 1v1l-9 1v2l-4-2c.93-.37 1.86-.74 2.81-1.12 2.81-1.8 3.23-3.01 4.26-6.26.73-3.53 1.39-7.05 1.93-10.62"/><path fill="#010839" d="M416 239v2c-.43.18-.43.18-2.62 1.06-6.52 3.74-9.83 9.01-12.38 15.94h-1c-.45-6.04 2.36-9.43 6-14 3.22-3.42 5.09-5 10-5"/><path fill="#020b40" d="m222 354 3 1c-.43.3-.43.3-2.59 1.83-1.12.8-2.23 1.61-3.35 2.42-.56.4-1.13.79-1.71 1.2-4.15 3.04-4.15 3.04-5.23 5.85L212 368c-.82-.33-.82-.33-5-2 4.32-4.75 9.35-8.92 15-12"/><path fill="#030d3f" d="m444.75 202.938 2.98.03c.38 0 .38 0 2.27.03v3c-.41-.02-.41-.02-2.48-.14-1.08-.03-2.16-.07-3.27-.11-1.07-.04-2.13-.09-3.23-.14-3.71.48-4.69 1.56-7.02 4.39l-2 2c.75-5.75.75-5.75 3-8 3.25-1.14 6.33-1.1 9.75-1.06"/><path fill="#010b45" d="m412 184-1 3c-.72-.62-1.44-1.24-2.19-1.88-4.99-3.76-9.48-4.46-15.62-4.74l-2.1-.12c-1.7-.1-3.39-.18-5.09-.26v-1c10-1.38 17.81-1.3 26 5"/><path fill="#010634" d="M35 500c2.87.09 5.7.24 8.56.44.81.05 1.62.1 2.45.16 1.99.13 3.99.26 5.99.4v1H36v18h-1c-.2-3.15-.38-6.29-.56-9.44-.06-.9-.11-1.79-.17-2.72l-.15-2.59c-.05-.79-.09-1.58-.14-2.39C34 501 34 501 35 500"/><path fill="#014ad7" d="M270 307c-1.23 3.7-2.2 3.94-5.56 5.69l-2.51 1.32c-.63.33-1.27.65-1.93.99.25-2.88.25-2.88 1-6 2.86-2.24 5.46-2.2 9-2"/><path fill="#020a3d" d="M355 549c1.8 2.65 2 4.11 1.94 7.38-1.19 4.6-2.51 6.35-5.94 9.62-2.81.88-2.81.88-5 1 .76-.7 1.53-1.4 2.31-2.12 4.58-4.9 6.03-9.26 6.69-15.88"/><path fill="#011667" d="m260 301 1 2h4l2-2 1 4 5 1-1 2-12-1-1-5z"/><path fill="#01093a" d="M213 368c4.04 1.49 7.61 3.43 11.31 5.62 1.07.64 2.14 1.27 3.24 1.92.4.24.4.24 2.45 1.46-3 1-3 1-6.36-.65-1.28-.75-2.56-1.52-3.83-2.29l-1.98-1.17c-1.62-.95-3.22-1.92-4.83-2.89z"/><path fill="#01093d" d="M481 350c4.01.6 6.55 2.67 9.75 5.06.98.74 1.97 1.47 2.98 2.23.75.56 1.5 1.13 2.27 1.71l-1 2-3-1v-2c-.7-.23-1.4-.45-2.12-.69-3.6-1.64-5.96-3.66-8.88-6.31z"/><path fill="#000631" d="M390 257c1.27 3.81.48 5.31-.81 9.06-.36 1.07-.72 2.13-1.08 3.23C387 272 387 272 385 274c.31-6.62 1.74-11.22 5-17"/><path fill="#010636" d="M382 418a556 556 0 0 1-6.25 3.56l-1.78 1.04c-4.43 2.46-4.43 2.46-7.39 2.11-.52-.23-1.04-.47-1.58-.71 2.27-1.2 4.54-2.38 6.81-3.56.65-.34 1.29-.69 1.95-1.04 4.9-2.51 4.9-2.51 8.24-1.4"/><path fill="#00083a" d="M332 418c3.95.63 7.2 1.86 10.81 3.56.49.23.49.23 2.96 1.38.37.18.37.18 2.23 1.06v1c-6.32-.4-10.65-2.71-16-6z"/><path fill="#010738" d="M294 277c-1 2-1 2-2.7 2.62-2.72.45-5.3.48-8.05.44-.98-.01-1.97-.02-2.98-.02-.75-.02-1.5-.03-2.27-.04v-2c5.37-.68 10.59-1.12 16-1"/><path fill="#020a3e" d="M212 311h21c-2.76 2.76-5.21 2.58-9 3v-1l-12-1z"/><path fill="#000530" d="M322 257c2 1 2 1 2.85 2.89 2.57 7.82 2.57 7.82 2.15 12.11h-2c-.51-1.56-1.01-3.12-1.5-4.69-.28-.87-.56-1.74-.84-2.63-.66-2.67-.78-4.94-.66-7.68"/><path fill="#030d45" d="M318 186v1c-.62.12-.62.12-3.75.75-3.79.94-5.74 2.16-8.25 5.25l-2 2c.3-3.58.74-4.76 3.44-7.25 4.13-2.82 5.65-2.71 10.56-1.75"/><path fill="#01093d" d="M267 96v2a87 87 0 0 1-5.5 3.62c-.51.32-.51.32-3.09 1.92-.8.48-1.59.96-2.41 1.46v-3c1.9-1.61 1.9-1.61 4.38-3.19.81-.53 1.62-1.06 2.46-1.6C265 96 265 96 267 96"/><path fill="#00083e" d="M337 35c-1.6.87-3.2 1.72-4.81 2.56-.9.48-1.79.95-2.71 1.44-2.48 1-2.48 1-5.48 0 1.41-.87 2.83-1.72 4.25-2.56.79-.48 1.58-.95 2.39-1.44 2.67-1.13 3.71-1.02 6.36 0"/><path fill="#014fe7" d="M491 311c-.33.17-.33.17-2 1v3c-5.75-1.75-5.75-1.75-8-4 3.69-1.23 6.21-.64 10 0"/><path fill="#0238b6" d="M447.625 305.438c.41.05.41.05 2.48.31l1.9.25v1h-8v3c-1-.33-1.99-.66-3-1v-3c2.52-1.26 3.85-.92 6.62-.56"/><path fill="#020d49" d="M261 560h3c-.25 3.38-.25 3.38-1 7-2.06 1.44-2.06 1.44-4 2l-2-2h3z"/><path fill="#010a3b" d="m513 527 5 1c-3.75 2-3.75 2-6 2l-1 5-2-3z"/><path fill="#02083b" d="m270 225 4 1c-1.49.99-1.49.99-9 6l-2-1c1.07-1.04 2.16-2.05 3.25-3.06.6-.57 1.21-1.14 1.83-1.73.63-.4 1.27-.8 1.92-1.21"/><path fill="#020c45" d="m414 510-1 2c-2.31.73-4.65 1.4-7 2l-2-2c6.62-3.12 6.62-3.12 10-2"/><path fill="#030939" d="M236 344v3c-1.53 1.39-1.53 1.39-3.5 2.69-.32.22-.32.22-1.97 1.32-.5.33-1.01.65-1.53.99v-3c1.53-1.39 1.53-1.39 3.5-2.69.65-.43 1.3-.87 1.97-1.32.5-.33 1.01-.65 1.53-.99"/><path fill="#02093d" d="M323 42c-1.26.87-2.54 1.72-3.81 2.56L317.04 46C315 47 315 47 312 46c1.26-.87 2.54-1.72 3.81-2.56.71-.48 1.42-.95 2.15-1.44 2.04-1 2.04-1 5.04 0"/><path fill="#000b48" d="M304 97h3c.62 3.38.62 3.38 1 7l-2 2c-1-3-1.51-5.88-2-9"/><path fill="#010b41" d="M224 122h-2v2l-7 2c.81-1.94.81-1.94 2-4 3.13-1.04 3.99-.93 7 0"/><path fill="#01093b" d="M447 528c3.88 1.88 3.88 1.88 5 3 .04 1.67.04 3.33 0 5-3.25-1.62-3.7-4.75-5-8"/></svg>